<svg width="40" height="41" viewBox="0 0 40 41" fill="none" xmlns="http://www.w3.org/2000/svg">
<path d="M20 40.2C9 40.2 0 31.2 0 20.1C0 9.1 9 0.1 20 0C31 0 40 9 40 20.1C40 31.2 31.1 40.2 20 40.2ZM20 2.2C10.1 2.2 2.1 10.2 2.1 20.1C2.1 30 10.1 38 20 38C29.9 38 37.9 30 37.9 20.1C37.9 10.2 29.9 2.2 20 2.2Z" fill="#B0B2B5"/>
<path d="M12.565 19.6081C13.8905 19.6081 14.965 18.5336 14.965 17.2081C14.965 15.8826 13.8905 14.8081 12.565 14.8081C11.2396 14.8081 10.165 15.8826 10.165 17.2081C10.165 18.5336 11.2396 19.6081 12.565 19.6081Z" fill="#B0B2B5"/>
<path d="M27.344 19.6081C28.6695 19.6081 29.744 18.5336 29.744 17.2081C29.744 15.8826 28.6695 14.8081 27.344 14.8081C26.0185 14.8081 24.944 15.8826 24.944 17.2081C24.944 18.5336 26.0185 19.6081 27.344 19.6081Z" fill="#B0B2B5"/>
<path d="M20.0381 24.3583C22.4381 24.3583 24.6381 25.1583 26.5381 26.6583C27.0381 26.9583 27.0381 27.6583 26.7381 28.1583C26.4381 28.6583 25.7381 28.6583 25.2381 28.3583C23.7381 27.1583 21.9381 26.4583 20.0381 26.4583C18.1381 26.4583 16.3381 27.0583 14.8381 28.2583C14.3381 28.6583 13.6381 28.5583 13.3381 28.0583C12.9381 27.5583 13.0381 26.8583 13.5381 26.5583C15.3381 25.1583 17.6381 24.3583 20.0381 24.3583Z" fill="#B0B2B5"/>
</svg>
