<svg width="49" height="50" viewBox="0 0 49 50" fill="none" xmlns="http://www.w3.org/2000/svg">
<path d="M24.4482 42.6321C23.8039 42.6321 23.2768 42.1049 23.2768 41.4606C23.2768 40.8163 23.8039 40.2892 24.4482 40.2892C32.7655 40.2892 39.5013 33.612 39.5013 25.4118C39.5013 17.2117 32.7655 10.4759 24.4482 10.4759C16.1895 10.4759 9.45373 17.1532 9.45373 25.4118C9.45373 26.0561 8.92658 26.5833 8.28228 26.5833C7.63799 26.5833 7.11084 26.0561 7.11084 25.4118C7.11084 15.8646 14.9009 8.13306 24.4482 8.13306C33.9955 8.13306 41.8441 15.8646 41.8441 25.4118C41.8441 34.9005 34.054 42.6321 24.4482 42.6321Z" fill="#B0B2B5"/>
<path d="M12.3009 13.1681C12.7564 12.7125 13.5019 12.7125 13.9575 13.1681C14.4131 13.6237 14.4131 14.3692 13.9575 14.8248C8.07635 20.706 8.03493 30.1904 13.8333 35.9888C19.6316 41.7871 29.1575 41.7871 35.0387 35.9059C40.8784 30.0662 40.9199 20.5817 35.0801 14.7419C34.6245 14.2864 34.6245 13.5409 35.0801 13.0853C35.5357 12.6297 36.2812 12.6297 36.7368 13.0853C43.4877 19.8362 43.4463 30.8117 36.6953 37.5626C29.9444 44.3135 18.9275 44.3964 12.1766 37.6454C5.46709 30.9359 5.5085 19.9605 12.3009 13.1681Z" fill="#B0B2B5"/>
<path d="M24.0967 27.1107C23.4524 27.1107 22.9253 26.5835 22.9253 25.9392V15.9234C22.9253 15.2791 23.4524 14.752 24.0967 14.752C24.741 14.752 25.2682 15.2791 25.2682 15.9234V25.9392C25.2682 26.5835 24.741 27.1107 24.0967 27.1107Z" fill="#B0B2B5"/>
<path d="M29.3682 32.3823C29.0754 32.3823 28.7825 32.2651 28.5482 32.0308L23.2767 26.8765C22.8081 26.4079 22.8081 25.705 23.2767 25.2364C23.7453 24.7679 24.5067 24.7679 24.9167 25.2364L30.1297 30.3908C30.5982 30.8594 30.5982 31.5622 30.1297 32.0308C29.954 32.2651 29.6611 32.3823 29.3682 32.3823Z" fill="#B0B2B5"/>
</svg>
