<svg width="33" height="33" viewBox="0 0 33 33" fill="none" xmlns="http://www.w3.org/2000/svg">
<path d="M16.4 32.8012C7.31087 32.8012 0 25.4904 0 16.5C0 7.5096 7.31087 0.19873 16.4 0.19873C25.4892 0.19873 32.8001 7.5096 32.8001 16.5C32.8001 25.4904 25.3904 32.8012 16.4 32.8012ZM16.4 2.17464C8.49641 2.17464 1.97591 8.59635 1.97591 16.5C1.97591 24.4036 8.49641 30.8253 16.4 30.8253C24.3037 30.8253 30.8242 24.4036 30.8242 16.5C30.8242 8.59635 24.3037 2.17464 16.4 2.17464Z" fill="#B0B2B5"/>
<path d="M16.4 25.3916C11.4602 25.3916 7.50842 21.4398 7.50842 16.5C7.50842 11.5602 11.559 7.6084 16.4 7.6084C18.6723 7.6084 20.8458 8.49756 22.5253 10.0783C22.9205 10.4735 22.9205 11.0662 22.5253 11.4614C22.1302 11.8566 21.5374 11.8566 21.1422 11.4614C19.8579 10.2759 18.1783 9.58431 16.4 9.58431C12.547 9.58431 9.48433 12.647 9.48433 16.5C9.48433 20.353 12.6458 23.4157 16.4 23.4157C18.1783 23.4157 19.8579 22.7241 21.1422 21.5386C21.5374 21.1434 22.1302 21.1434 22.5253 21.5386C22.9205 21.9337 22.9205 22.5265 22.5253 22.9217C20.8458 24.5024 18.6723 25.3916 16.4 25.3916Z" fill="#B0B2B5"/>
<path d="M17.7833 15.0181H7.31095C6.71818 15.0181 6.323 14.623 6.323 14.0302C6.323 13.4374 6.71818 13.0422 7.31095 13.0422H17.7833C18.376 13.0422 18.7712 13.4374 18.7712 14.0302C18.7712 14.623 18.2773 15.0181 17.7833 15.0181Z" fill="#B0B2B5"/>
<path d="M17.7833 19.9578H7.31095C6.71818 19.9578 6.323 19.5627 6.323 18.9699C6.323 18.3771 6.71818 17.9819 7.31095 17.9819H17.7833C18.376 17.9819 18.7712 18.3771 18.7712 18.9699C18.7712 19.5627 18.2773 19.9578 17.7833 19.9578Z" fill="#B0B2B5"/>
</svg>
