<svg width="44" height="45" viewBox="0 0 44 45" fill="none" xmlns="http://www.w3.org/2000/svg">
<path d="M43.3125 32.2624C42.9 32.2624 42.625 31.9874 42.625 31.5749V26.8999C42.625 26.4874 42.9 26.2124 43.3125 26.2124C43.725 26.2124 44 26.4874 44 26.8999V31.5749C44 31.9187 43.6562 32.2624 43.3125 32.2624Z" fill="#B0B2B5"/>
<path d="M43.3125 32.2625H38.6374C38.2249 32.2625 37.95 31.9875 37.95 31.575C37.95 31.1625 38.2249 30.8875 38.6374 30.8875H43.3125C43.725 30.8875 44 31.1625 44 31.575C44 31.9875 43.6562 32.2625 43.3125 32.2625Z" fill="#B0B2B5"/>
<path d="M12.9938 6.89375C12.5813 6.89375 12.3063 6.61875 12.3063 6.20625V1.53125C12.3063 1.11875 12.5813 0.84375 12.9938 0.84375C13.4063 0.84375 13.6813 1.11875 13.6813 1.53125V6.20625C13.6813 6.61875 13.4063 6.89375 12.9938 6.89375Z" fill="#B0B2B5"/>
<path d="M17.7375 2.21875H13.0625C12.65 2.21875 12.375 1.94375 12.375 1.53125C12.375 1.11875 12.65 0.84375 13.0625 0.84375H17.7375C18.15 0.84375 18.425 1.11875 18.425 1.53125C18.425 1.94375 18.15 2.21875 17.7375 2.21875Z" fill="#B0B2B5"/>
<path d="M43.3125 2.21875H38.6374C38.2249 2.21875 37.95 1.94375 37.95 1.53125C37.95 1.11875 38.2249 0.84375 38.6374 0.84375H43.3125C43.725 0.84375 44 1.11875 44 1.53125C44 1.94375 43.6562 2.21875 43.3125 2.21875Z" fill="#B0B2B5"/>
<path d="M43.3125 6.89375C42.9 6.89375 42.625 6.61875 42.625 6.20625V1.53125C42.625 1.11875 42.9 0.84375 43.3125 0.84375C43.725 0.84375 44 1.11875 44 1.53125V6.20625C44 6.61875 43.6562 6.89375 43.3125 6.89375Z" fill="#B0B2B5"/>
<path d="M1.375 44.1563C1.03125 44.1563 0.6875 44.0188 0.4125 43.7438C-0.1375 43.1938 -0.1375 42.3688 0.4125 41.8188L20.5563 21.6063C21.1063 21.0563 21.9312 21.0563 22.4813 21.6063C23.0312 22.1563 23.0312 22.9813 22.4813 23.5313L2.3375 43.7438C2.13125 44.0188 1.71875 44.1563 1.375 44.1563Z" fill="#B0B2B5"/>
<path d="M27.3625 27.8624C27.2937 27.8624 27.225 27.8624 27.1562 27.8624C26.6062 27.7937 26.1937 27.3812 26.0562 26.8999L23.925 20.0937L17.05 17.9624C16.5687 17.8249 16.1562 17.4124 16.0875 16.8624C16.0187 16.3124 16.225 15.8312 16.6375 15.5562L22.4812 11.4312L22.4125 4.34994C22.4125 3.79994 22.6875 3.31869 23.1687 3.11244C23.65 2.90619 24.2 2.90619 24.6125 3.24994L30.3875 7.51244L37.1937 5.24369C37.675 5.10619 38.225 5.17494 38.6375 5.58744C38.9812 5.93119 39.1187 6.48119 38.9812 7.03119L36.7125 13.7687L40.975 19.4749C41.3187 19.8874 41.3187 20.4374 41.1125 20.9187C40.9062 21.3999 40.3562 21.6749 39.875 21.6749L32.6562 21.4687L28.5312 27.2437C28.2562 27.6562 27.8437 27.8624 27.3625 27.8624ZM20.625 16.1749L25.4375 17.6874C25.85 17.8249 26.1937 18.1687 26.3312 18.5812L27.8437 23.3937L30.7312 19.2687C31.0062 18.9249 31.4187 18.7187 31.9 18.7187L36.9187 18.7874L33.8937 14.7312C33.6187 14.3874 33.55 13.9062 33.6875 13.4937L35.3375 8.74994L30.5937 10.3999C30.1812 10.5374 29.7 10.4687 29.3562 10.1937L25.3 7.16869L25.3687 12.1874C25.3687 12.6687 25.1625 13.0812 24.8187 13.3562L20.625 16.1749Z" fill="#B0B2B5"/>
</svg>
