<svg width="41" height="41" viewBox="0 0 41 41" fill="none" xmlns="http://www.w3.org/2000/svg">
<path d="M20.1 40.2C9.00001 40.2 0 31.2 0 20.1C0 9 9.00001 0 20.1 0C31.2 0 40.2 9 40.2 20.1C40.2 31.2 31.2 40.2 20.1 40.2ZM20.1 2.1C10.1 2.1 2 10.1 2 20.1C2 30.1 10 38.2 20 38.2C30 38.2 38 30.1 38 20.1C38.1 10.1 30 2.1 20.1 2.1Z" fill="#B0B2B5"/>
<path d="M20.1093 40.2C14.2093 40.2 9.50928 31.3 9.50928 20.1C9.50928 8.9 14.2093 0 20.1093 0C26.0093 0 30.6093 8.8 30.6093 20.1C30.6093 31.4 26.0093 40.2 20.1093 40.2ZM20.1093 2.1C15.5093 2.1 11.6093 10.4 11.6093 20.2C11.6093 30 15.5093 38.3 20.1093 38.3C24.7093 38.3 28.6093 30 28.6093 20.2C28.6093 10.4 24.7093 2.1 20.1093 2.1Z" fill="#B0B2B5"/>
<path d="M39.2043 19.0942H0.904297V21.1942H39.2043V19.0942Z" fill="#B0B2B5"/>
<path d="M21.1942 0.905273H19.0942V39.3053H21.1942V0.905273Z" fill="#B0B2B5"/>
</svg>
