<svg width="40" height="41" viewBox="0 0 40 41" fill="none" xmlns="http://www.w3.org/2000/svg">
<path d="M20 40.2C9 40.2 0 31.2 0 20.1C0 9.1 9 0.1 20 0C31 0 40 9 40 20.1C40 31.2 31.1 40.2 20 40.2ZM20 2.2C10.1 2.2 2.1 10.2 2.1 20.1C2.1 30 10.1 38 20 38C29.9 38 37.9 30 37.9 20.1C37.9 10.2 29.9 2.2 20 2.2Z" fill="#B0B2B5"/>
<path d="M12.565 19.6081C13.8905 19.6081 14.965 18.5336 14.965 17.2081C14.965 15.8826 13.8905 14.8081 12.565 14.8081C11.2396 14.8081 10.165 15.8826 10.165 17.2081C10.165 18.5336 11.2396 19.6081 12.565 19.6081Z" fill="#B0B2B5"/>
<path d="M27.344 19.6081C28.6695 19.6081 29.744 18.5336 29.744 17.2081C29.744 15.8826 28.6695 14.8081 27.344 14.8081C26.0185 14.8081 24.944 15.8826 24.944 17.2081C24.944 18.5336 26.0185 19.6081 27.344 19.6081Z" fill="#B0B2B5"/>
<path d="M19.996 28.5629C17.596 28.5629 15.396 27.7629 13.496 26.2629C12.996 25.9629 12.996 25.2629 13.296 24.7629C13.596 24.2629 14.296 24.2629 14.796 24.5629C16.296 25.7629 18.096 26.4629 19.996 26.4629C21.896 26.4629 23.696 25.8629 25.196 24.6629C25.696 24.2629 26.396 24.3629 26.696 24.8629C27.096 25.3629 26.996 26.0629 26.496 26.3629C24.696 27.7629 22.396 28.5629 19.996 28.5629Z" fill="#B0B2B5"/>
</svg>
