<svg width="35" height="35" viewBox="0 0 35 35" fill="none" xmlns="http://www.w3.org/2000/svg">
<path fill-rule="evenodd" clip-rule="evenodd" d="M34.8821 7.60571C34.8682 7.56213 34.8436 7.51855 34.8 7.47498V7.375C34.8 7.27502 34.7001 7.27502 34.7001 7.27502L34.6 7.17505L34.4 6.97498L34.3 6.875L34.2001 6.77502C34.15 6.77502 34.125 6.75 34.1 6.72498C34.0751 6.70007 34.05 6.67505 34 6.67505H33.9L17.2001 0.0750732C16.9 -0.0250244 16.6 -0.0250244 16.3 0.0750732L0.800049 6.67505C0.773071 6.67505 0.746216 6.68225 0.719238 6.69287C0.696167 6.7019 0.673096 6.7135 0.650024 6.72498C0.626709 6.73669 0.603394 6.74841 0.580078 6.75757C0.553345 6.76794 0.526733 6.77502 0.5 6.77502C0.200073 6.97498 0 7.375 0 7.77502V12.175V14.375V17.275V19.475V22.375V24.5751V27.0751C0 27.475 0.300049 27.975 0.700073 28.0751L17 34.675C17.2001 34.775 17.3 34.775 17.5 34.775C17.6172 34.775 17.7344 34.7407 17.8314 34.7123C17.8738 34.6998 17.9122 34.6886 17.9453 34.6818C17.9658 34.6776 17.9841 34.675 18 34.675L34.2001 28.0751C34.7001 27.975 34.9 27.475 34.9 27.0751V7.77502C34.9 7.71863 34.9 7.66223 34.8821 7.60571ZM30.8 7.77502L17.5 13.175L11.7001 10.775L24.5 5.27502L30.8 7.77502ZM16.9 2.27502L23.1 4.77502L10.3 10.275L4.09998 7.77502L16.9 2.27502ZM16.3 32.175L2.30005 26.475V26V24.775V22.5751V19.675V17.475V14.5751V12.375V11V9.67505L16.3 15.375V32.175ZM32.6 26.5751L18.6 32.175V15.175L32.6 9.47498V26.5751Z" fill="#B0B2B5"/>
</svg>
