<svg width="50" height="50" viewBox="0 0 50 50" fill="none" xmlns="http://www.w3.org/2000/svg">
<path d="M49.2189 35.7031C48.7501 35.7031 48.4376 35.3906 48.4376 34.9219V29.6094C48.4376 29.1406 48.7501 28.8281 49.2189 28.8281C49.6876 28.8281 50.0001 29.1406 50.0001 29.6094V34.9219C50.0001 35.3125 49.6095 35.7031 49.2189 35.7031Z" fill="white"/>
<path d="M49.2188 35.7031H43.9062C43.4375 35.7031 43.125 35.3906 43.125 34.9219C43.125 34.4531 43.4375 34.1406 43.9062 34.1406H49.2188C49.6875 34.1406 50 34.4531 50 34.9219C50 35.3906 49.6094 35.7031 49.2188 35.7031Z" fill="white"/>
<path d="M14.7657 6.87501C14.297 6.87501 13.9845 6.56251 13.9845 6.09376V0.781251C13.9845 0.3125 14.297 0 14.7657 0C15.2345 0 15.547 0.3125 15.547 0.781251V6.09376C15.547 6.56251 15.2345 6.87501 14.7657 6.87501Z" fill="white"/>
<path d="M20.1564 1.5625H14.8439C14.3751 1.5625 14.0626 1.25 14.0626 0.781251C14.0626 0.3125 14.3751 0 14.8439 0H20.1564C20.6251 0 20.9376 0.3125 20.9376 0.781251C20.9376 1.25 20.6251 1.5625 20.1564 1.5625Z" fill="white"/>
<path d="M49.2188 1.5625H43.9062C43.4375 1.5625 43.125 1.25 43.125 0.781251C43.125 0.3125 43.4375 0 43.9062 0H49.2188C49.6875 0 50 0.3125 50 0.781251C50 1.25 49.6094 1.5625 49.2188 1.5625Z" fill="white"/>
<path d="M49.2188 6.87501C48.75 6.87501 48.4375 6.56251 48.4375 6.09376V0.781251C48.4375 0.3125 48.75 0 49.2188 0C49.6875 0 50 0.3125 50 0.781251V6.09376C50 6.56251 49.6094 6.87501 49.2188 6.87501Z" fill="white"/>
<path d="M1.5625 49.2188C1.17188 49.2188 0.781251 49.0625 0.468751 48.75C-0.15625 48.125 -0.15625 47.1875 0.468751 46.5625L23.3594 23.5938C23.9844 22.9687 24.9219 22.9687 25.5469 23.5938C26.1719 24.2188 26.1719 25.1563 25.5469 25.7813L2.65625 48.75C2.42188 49.0625 1.95313 49.2188 1.5625 49.2188Z" fill="white"/>
<path d="M31.0938 30.703C31.0157 30.703 30.9376 30.703 30.8594 30.703C30.2344 30.6248 29.7657 30.1561 29.6094 29.6092L27.1875 21.8748L19.375 19.4529C18.8282 19.2967 18.3594 18.8279 18.2813 18.2029C18.2032 17.5779 18.4375 17.0311 18.9063 16.7186L25.5469 12.0311L25.4688 3.98417C25.4688 3.35917 25.7813 2.8123 26.3282 2.57792C26.875 2.34354 27.5 2.34354 27.9688 2.73417L34.5313 7.57793L42.2657 4.9998C42.8126 4.84355 43.4376 4.92167 43.9063 5.39042C44.2969 5.78105 44.4532 6.40605 44.2969 7.03105L41.7188 14.6873L46.5626 21.1717C46.9532 21.6404 46.9532 22.2654 46.7188 22.8123C46.4845 23.3592 45.8595 23.6717 45.3126 23.6717L37.1094 23.4373L32.4219 29.9998C32.1094 30.4686 31.6407 30.703 31.0938 30.703ZM23.4375 17.4217L28.9063 19.1404C29.3751 19.2967 29.7657 19.6873 29.9219 20.1561L31.6407 25.6248L34.9219 20.9373C35.2344 20.5467 35.7032 20.3123 36.2501 20.3123L41.9532 20.3904L38.5157 15.7811C38.2032 15.3904 38.1251 14.8436 38.2813 14.3748L40.1563 8.98418L34.7657 10.8592C34.2969 11.0154 33.7501 10.9373 33.3594 10.6248L28.7501 7.1873L28.8282 12.8904C28.8282 13.4373 28.5938 13.9061 28.2032 14.2186L23.4375 17.4217Z" fill="white"/>
</svg>
