<svg width="44" height="44" viewBox="0 0 44 44" fill="none" xmlns="http://www.w3.org/2000/svg">
<path fill-rule="evenodd" clip-rule="evenodd" d="M44 10.5158C44 10.3923 44 10.2688 43.8765 10.1454V10.0219C43.8765 9.89836 43.753 9.89836 43.753 9.89836L43.6295 9.77487L43.3825 9.52788L43.259 9.40438L43.1355 9.28089C43.0737 9.28089 43.0429 9.25001 43.012 9.21914C42.9811 9.18826 42.9502 9.15739 42.8885 9.15739H42.765L22.1413 1.00668C21.7708 0.883189 21.4003 0.883189 21.0298 1.00668L1.88798 9.15739C1.82623 9.15739 1.76449 9.18826 1.70274 9.21914C1.64099 9.25001 1.57924 9.28089 1.5175 9.28089C1.14812 9.52713 0.901507 10.0189 0.900024 10.5114V34.3541C0.901841 34.8475 1.27172 35.4622 1.76449 35.5854L21.8943 43.7361C22.1413 43.8596 22.2647 43.8596 22.5117 43.8596C22.6564 43.8596 22.8011 43.8173 22.921 43.7822C23.0057 43.7573 23.0781 43.7361 23.1292 43.7361L43.1355 35.5854C43.753 35.4619 44 34.8445 44 34.3505V10.5158ZM38.9366 10.5158L22.5117 17.1846L15.349 14.2207L31.1564 7.42845L38.9366 10.5158ZM21.7708 3.72359L29.4275 6.81097L13.6201 13.6032L5.96333 10.5158L21.7708 3.72359ZM21.0298 40.6488L3.74041 33.6095V31.5101H3.74048V28.7932H3.74041V25.2118H3.74048V22.4949H3.74041V18.9135H3.74048V16.1966H3.74041V12.8623L21.0298 19.9015V40.6488ZM23.8702 19.6545L41.1596 12.6153V33.733L23.8702 40.6488V19.6545Z" fill="white"/>
</svg>
