<svg width="67" height="63" viewBox="0 0 67 63" fill="none" xmlns="http://www.w3.org/2000/svg">
<path d="M25.0968 58.8752C24.7296 59.9766 24.7296 61.4451 25.831 61.8123C26.1982 62.1794 26.5653 62.1794 26.9324 62.1794C27.6667 62.1794 28.401 61.8123 28.7681 61.078L29.1352 60.7109C30.6037 58.5081 31.7051 55.9382 33.1737 54.1025C37.2121 55.2039 40.8834 55.5711 44.1876 55.5711C50.0617 55.5711 54.4672 54.1025 58.1385 50.7984C68.7853 41.6201 66.2154 22.5293 66.2154 21.795C65.8483 20.6936 65.114 19.9594 64.3798 19.9594C53.3658 19.2251 44.5547 19.9594 38.3135 22.5293C35.3764 13.7182 26.1982 3.80563 24.7297 2.3371C22.1597 -0.232811 17.7542 -0.232811 14.8171 2.3371C13.3486 3.80563 0.499023 18.1237 0.499023 27.302C0.499023 37.9488 9.31016 46.3928 19.9569 46.3928C22.5269 46.3928 25.4639 46.0257 28.0338 44.9243C28.7681 47.8613 29.8695 50.0641 30.6037 51.1655C29.1352 53.7354 27.6667 55.9382 26.1982 58.5081L25.0968 58.8752ZM26.5653 40.5187C24.3625 41.6201 21.7926 42.3543 19.5898 42.3543C11.5129 42.3543 4.53746 35.746 4.53746 27.302C4.53746 20.6936 14.0829 9.31258 17.7542 5.27415C18.1213 4.90702 18.8556 4.53989 19.2227 4.53989C19.5898 4.53989 20.6912 4.90702 20.6912 5.27415C23.9954 8.57832 31.7051 17.7566 33.5408 24.3649C33.9079 25.4663 33.9079 26.2006 33.9079 27.302C33.9079 28.0363 33.9079 28.7705 33.5408 29.8719C33.1737 32.4418 32.0723 34.6446 30.2366 36.8474C29.8695 38.3159 28.0338 39.4173 26.5653 40.5187ZM31.338 42.3543C36.1107 38.683 39.0477 33.5432 39.0477 27.302C39.0477 26.9349 39.0477 26.9349 39.0477 26.9349C44.1876 24.3649 52.2644 23.6307 62.177 24.3649C62.5441 29.1376 62.5441 41.6201 55.5686 47.4942C51.1631 51.1655 44.5547 51.8997 36.1107 50.0641C39.0477 46.3928 43.0862 43.0886 48.226 40.1516C49.3274 39.7844 49.6945 38.3159 48.9603 37.2145C48.5931 36.1131 47.1246 35.746 46.0232 36.4803C40.1491 39.7844 35.7436 43.4557 32.4394 47.4942C32.4394 45.6585 31.7051 44.19 31.338 42.3543Z" fill="white"/>
<path d="M14.8172 24.7321C14.8172 23.6307 13.7158 22.5293 12.6144 22.5293C11.513 22.5293 10.4116 23.6307 10.4116 24.7321C10.4116 25.8335 11.513 26.9349 12.6144 26.9349C14.0829 26.9349 14.8172 25.8335 14.8172 24.7321Z" fill="white"/>
<path d="M25.8305 26.9349C27.047 26.9349 28.0333 25.9486 28.0333 24.7321C28.0333 23.5155 27.047 22.5293 25.8305 22.5293C24.6139 22.5293 23.6277 23.5155 23.6277 24.7321C23.6277 25.9486 24.6139 26.9349 25.8305 26.9349Z" fill="white"/>
<path d="M23.2608 30.2391C21.058 32.0748 17.3867 31.7076 15.184 30.2391C14.4497 29.5048 12.614 29.872 12.2469 30.6062C11.5127 31.3405 11.8798 32.809 12.614 33.5433C14.4497 35.0118 17.0196 36.1132 19.5895 36.1132C22.1594 36.1132 24.3622 35.3789 26.1979 33.9104C26.9321 33.1761 27.2993 31.7076 26.565 30.9734C25.8308 29.872 24.3622 29.872 23.2608 30.2391Z" fill="white"/>
</svg>
