<svg width="58" height="54" viewBox="0 0 58 54" fill="none" xmlns="http://www.w3.org/2000/svg">
<path d="M21.384 50.7711C21.0658 51.7258 21.0658 52.9986 22.0204 53.3169C22.3387 53.6351 22.6569 53.6351 22.9751 53.6351C23.6115 53.6351 24.248 53.3169 24.5662 52.6804L24.8844 52.3622C26.1573 50.4529 27.1119 48.2254 28.3848 46.6343C31.8852 47.589 35.0673 47.9072 37.9313 47.9072C43.0228 47.9072 46.8414 46.6343 50.0235 43.7704C59.2518 35.8149 57.0243 19.2677 57.0243 18.6312C56.7061 17.6766 56.0696 17.0401 55.4332 17.0401C45.8867 16.4037 38.2495 17.0401 32.8398 19.2677C30.2941 11.6305 22.3387 3.0386 21.0658 1.76573C18.8383 -0.461787 15.0197 -0.461787 12.4739 1.76573C11.2011 3.0386 0.0634766 15.4491 0.0634766 23.4045C0.0634766 32.6328 7.70068 39.9518 16.929 39.9518C19.1565 39.9518 21.7022 39.6335 23.9297 38.6789C24.5662 41.2246 25.5208 43.1339 26.1573 44.0886C24.8844 46.3161 23.6115 48.2254 22.3387 50.4529L21.384 50.7711ZM22.6569 34.8603C20.7476 35.8149 18.5201 36.4514 16.6107 36.4514C9.60998 36.4514 3.56386 30.7235 3.56386 23.4045C3.56386 17.6766 11.8375 7.81185 15.0197 4.31146C15.3379 3.99325 15.9743 3.67503 16.2925 3.67503C16.6108 3.67503 17.5654 3.99325 17.5654 4.31146C20.4294 7.17542 27.1119 15.1308 28.703 20.8587C29.0212 21.8134 29.0212 22.4498 29.0212 23.4045C29.0212 24.0409 29.0212 24.6773 28.703 25.632C28.3848 27.8595 27.4301 29.7688 25.839 31.6781C25.5208 32.951 23.9297 33.9056 22.6569 34.8603ZM26.7937 36.4514C30.9305 33.2692 33.4762 28.8142 33.4762 23.4045C33.4762 23.0863 33.4762 23.0863 33.4762 23.0863C37.9313 20.8587 44.932 20.2223 53.5239 20.8587C53.8421 24.9956 53.8421 35.8149 47.796 40.9064C43.9774 44.0886 38.2495 44.725 30.9305 43.1339C33.4762 39.9518 36.9766 37.0878 41.4317 34.5421C42.3863 34.2239 42.7045 32.951 42.0681 31.9963C41.7499 31.0417 40.477 30.7235 39.5224 31.3599C34.4309 34.2239 30.6123 37.406 27.7483 40.9064C27.7483 39.3153 27.1119 38.0425 26.7937 36.4514Z" fill="white"/>
</svg>
