<svg width="221" height="57" viewBox="0 0 221 57" fill="none" xmlns="http://www.w3.org/2000/svg">
<path d="M40.9595 24.0469C45.2141 24.0469 46.1713 25.8967 46.1713 28.2038C46.1713 30.6494 45.0134 32.4014 40.9771 32.4014C36.9666 32.4014 35.8074 30.7512 35.8074 28.2038C35.8074 25.6972 37.071 24.0469 40.9595 24.0469Z" fill="white" fill-opacity="0.54"/>
<path d="M85.4227 24.0469C89.6772 24.0469 90.6345 25.8967 90.6345 28.2038C90.6345 30.6494 89.4752 32.4014 85.4403 32.4014C81.4311 32.4014 80.2705 30.7512 80.2705 28.2038C80.2705 25.6972 81.5341 24.0469 85.4227 24.0469Z" fill="white" fill-opacity="0.54"/>
<path fill-rule="evenodd" clip-rule="evenodd" d="M3.29028 52.2495V4.13477H218.295V52.2495H3.29028ZM105.761 49.5353H215.583V6.84905H105.761V49.5353ZM40.9799 36.4972C48.5332 36.4972 51.7086 33.236 51.7086 28.1426C51.7086 22.9665 48.1319 19.8898 40.9799 19.8898C33.9378 19.8898 30.2309 23.2311 30.2309 28.1426C30.2309 33.6852 34.1194 36.4972 40.9799 36.4972ZM14.7189 20.2563V36.2529H29.9638V31.9928H20.2344V20.2563H14.7189ZM68.7703 36.2529L68.628 34.703C66.7828 36.0211 64.537 36.6554 62.2759 36.4972C58.8769 36.4972 56.0459 35.478 54.4582 33.4205C53.411 31.9185 52.8822 30.1154 52.9519 28.2851C52.8924 26.4933 53.4394 24.7339 54.5043 23.2922C56.111 21.2958 59.0233 19.9713 63.3592 19.9713C68.3473 19.9713 71.2786 21.4994 72.5395 24.0671C72.8102 24.6719 72.9692 25.3206 73.0087 25.982H67.7318C67.5988 25.5801 67.3513 25.2258 67.02 24.9628C65.9688 24.2653 64.7136 23.9427 63.4568 24.0468C62.7197 23.9573 61.9718 24.0255 61.263 24.2468C60.5541 24.4682 59.9002 24.8376 59.3446 25.3306C58.7136 26.1951 58.4174 27.2594 58.5108 28.3258C58.4376 29.3433 58.7099 30.3557 59.2836 31.1989C59.8442 31.7218 60.5108 32.1178 61.2378 32.3605C61.9649 32.603 62.7354 32.6865 63.4975 32.6049C65.011 32.7281 66.5137 32.2609 67.6911 31.3007C67.944 30.9842 68.1183 30.6121 68.1995 30.215H62.5213V26.7773H73.1469V36.2529H68.7703ZM85.443 36.4972C92.9949 36.4972 96.1716 33.236 96.1716 28.1426C96.1716 22.9665 92.5894 19.8898 85.443 19.8898C78.4008 19.8898 74.6939 23.2311 74.6939 28.1426C74.6939 33.6852 78.5825 36.4972 85.443 36.4972Z" fill="white" fill-opacity="0.54"/>
<path d="M115.052 36.192V20.1953H118.983V36.192H115.052Z" fill="white" fill-opacity="0.54"/>
<path d="M139.174 29.5083C138.178 30.8125 136.463 31.4083 134.045 31.4232C133.535 31.4232 126.777 31.4029 126.777 31.4029V36.1922H122.929V20.1956H134.047C134.938 20.1013 135.839 20.1958 136.69 20.4731C137.543 20.7505 138.327 21.2043 138.993 21.8051C139.871 22.9508 140.298 24.3794 140.194 25.8196C140.283 27.1295 139.924 28.4309 139.174 29.5083ZM136.019 24.2928C135.613 23.6821 134.735 23.3428 133.251 23.3428H126.756V28.2122H133.209C134.796 28.2122 135.633 27.8865 136.019 27.2541C136.248 26.8085 136.347 26.3068 136.304 25.8074C136.338 25.2865 136.24 24.7655 136.019 24.2928Z" fill="white" fill-opacity="0.54"/>
<path d="M151.533 36.4364C144.285 36.4364 142.066 33.7221 142.066 31.0363H146.179C146.179 32.3609 147.99 33.3597 151.716 33.3597C155.42 33.3597 156.398 32.707 156.398 31.647C156.398 30.465 155.665 30.0985 152.224 29.7117C151.546 29.6507 149.701 29.4267 149.008 29.325C144.127 28.774 142.248 27.3272 142.248 24.7392C142.248 22.0086 144.998 19.9512 150.962 19.9512C157.436 19.9512 159.92 22.4985 159.92 25.1477H155.852C155.852 23.8027 154.326 23.0278 150.722 23.0278C147.017 23.0278 146.223 23.5367 146.223 24.5356C146.223 25.5752 147.037 25.9009 150.969 26.3691C151.865 26.4926 153.859 26.7165 154.409 26.7762C158.563 27.2037 160.435 28.7115 160.435 31.381C160.428 34.5608 157.578 36.4364 151.533 36.4364Z" fill="white" fill-opacity="0.54"/>
<path d="M172.014 36.4159C166.702 36.4159 163.24 34.3164 163.24 29.9016V20.1953H167.128V29.9559C167.128 31.974 168.778 33.3175 172.177 33.3175C175.25 33.3175 177.083 32.0554 177.083 29.9559V20.1953H180.931V30.264C180.931 34.277 177.714 36.4159 172.014 36.4159Z" fill="white" fill-opacity="0.54"/>
<path d="M202.001 36.192V25.514L197.013 36.192H193.227L188.381 25.514V36.192H184.721V20.1953H189.68L195.177 32.3811L200.795 20.1953H205.676V36.192H202.001Z" fill="white" fill-opacity="0.54"/>
</svg>
