<svg width="208" height="60" viewBox="0 0 208 60" fill="none" xmlns="http://www.w3.org/2000/svg">
<path fill-rule="evenodd" clip-rule="evenodd" d="M34.586 4.85771C32.6441 2.91015 29.4964 2.91079 27.5554 4.85916L11.3556 21.1197L11.3418 21.1157L11.2906 21.1212C11.3117 21.1314 11.3324 21.1414 11.3527 21.1516C8.51092 21.4503 7.3052 22.3071 7.29155 23.4074C7.29636 23.8167 7.46373 24.2588 7.77117 24.7177L7.75639 24.7325C10.3399 28.6421 23.1382 33.7993 32.1927 30.3051C25.4067 33.7094 9.42539 34.3842 4.73142 27.7743C3.71204 28.8807 3.28553 30.3348 3.44615 31.7322C4.68617 38.5897 18.5496 40.4605 32.4132 30.5249L35.4132 33.5349C31.6801 37.383 26.1659 59.735 34.3594 56.3223C34.5538 56.1899 34.7188 56.0714 34.9431 55.9011L35.3083 55.5552C35.2873 55.5604 35.2663 55.5654 35.2455 55.5703L57.1895 34.7846C59.227 32.8546 59.2732 29.6173 57.2913 27.6296L34.586 4.85771ZM32.1964 11.6316L32.9463 8.62154L33.6963 11.6316L35.9464 12.3841L33.6963 13.1366L32.9463 16.1467L32.1964 13.1366L29.9463 12.3841L32.1964 11.6316ZM22.9132 21.4577L23.4132 19.451L23.9132 21.4577L25.4132 21.9594L23.9132 22.461L23.4132 24.4677L22.9132 22.461L21.4133 21.9594L22.9132 21.4577ZM40.3275 38.3841L39.8275 40.3907L38.3276 40.8925L39.8275 41.3941L40.3275 43.4007L40.8275 41.3941L42.3275 40.8925L40.8275 40.3907L40.3275 38.3841Z" fill="white" fill-opacity="0.54"/>
<path d="M71.3674 16.0117H66.7107V37.0942H79.602V32.9632H71.3674V16.0117Z" fill="white" fill-opacity="0.54"/>
<path d="M80.0468 29.9431C80.0468 34.4446 83.0566 37.436 87.5998 37.436C92.1147 37.436 95.1244 34.4446 95.1244 29.9431C95.1244 25.4417 92.1147 22.4219 87.5998 22.4219C83.0566 22.4219 80.0468 25.4417 80.0468 29.9431ZM84.448 29.9147C84.448 27.7779 85.6973 26.3534 87.5998 26.3534C89.4738 26.3534 90.7233 27.7779 90.7233 29.9147C90.7233 32.0799 89.4738 33.5044 87.5998 33.5044C85.6973 33.5044 84.448 32.0799 84.448 29.9147Z" fill="white" fill-opacity="0.54"/>
<path d="M95.8278 29.7147C95.8278 34.0165 98.6106 36.9225 102.557 36.9225C104.46 36.9225 106.107 36.2387 106.93 35.1277V37.0935C106.93 39.0593 105.709 40.3699 103.551 40.3699C101.62 40.3699 100.286 39.4581 100.201 37.8342H95.7711C96.1685 41.7373 99.1784 44.3584 103.296 44.3584C108.151 44.3584 111.218 41.196 111.218 36.1817V22.8486H107.271L107.044 24.3015C106.249 23.1334 104.573 22.3643 102.643 22.3643C98.6674 22.3643 95.8278 25.3557 95.8278 29.7147ZM100.257 29.6007C100.257 27.5494 101.62 26.1818 103.352 26.1818C105.369 26.1818 106.845 27.5209 106.845 29.6007C106.845 31.6804 105.397 33.1049 103.381 33.1049C101.649 33.1049 100.257 31.6804 100.257 29.6007Z" fill="white" fill-opacity="0.54"/>
<path d="M112.492 29.9431C112.492 34.4446 115.502 37.436 120.045 37.436C124.56 37.436 127.57 34.4446 127.57 29.9431C127.57 25.4417 124.56 22.4219 120.045 22.4219C115.502 22.4219 112.492 25.4417 112.492 29.9431ZM116.894 29.9147C116.894 27.7779 118.143 26.3534 120.045 26.3534C121.92 26.3534 123.169 27.7779 123.169 29.9147C123.169 32.0799 121.92 33.5044 120.045 33.5044C118.143 33.5044 116.894 32.0799 116.894 29.9147Z" fill="white" fill-opacity="0.54"/>
<path d="M131.34 20.6264C132.703 20.6264 133.81 19.5153 133.81 18.1193C133.81 16.7232 132.703 15.6406 131.34 15.6406C129.949 15.6406 128.841 16.7232 128.841 18.1193C128.841 19.5153 129.949 20.6264 131.34 20.6264ZM129.125 37.0935H133.527V22.8486H129.125V37.0935Z" fill="white" fill-opacity="0.54"/>
<path d="M136.088 43.9319H140.404V35.6699C141.228 36.7525 143.101 37.4932 145.062 37.4932C149.292 37.4932 151.848 34.2454 151.733 29.7439C151.62 25.1571 148.98 22.3936 145.033 22.3936C143.017 22.3936 141.115 23.2767 140.319 24.5873L140.092 22.8494H136.088V43.9319ZM140.49 29.9718C140.49 27.8352 141.909 26.4107 143.954 26.4107C146.026 26.4107 147.333 27.8636 147.333 29.9718C147.333 32.0802 146.026 33.5331 143.954 33.5331C141.909 33.5331 140.49 32.1086 140.49 29.9718Z" fill="white" fill-opacity="0.54"/>
<path d="M152.2 32.5929C152.313 35.4704 154.586 37.4646 158.163 37.4646C161.599 37.4646 163.985 35.6413 163.985 32.7069C163.985 30.5987 162.734 29.2026 160.406 28.6329L157.878 28.006C156.97 27.7782 156.403 27.5503 156.403 26.8096C156.403 26.0688 156.998 25.5844 157.878 25.5844C158.873 25.5844 159.526 26.2397 159.497 27.2084H163.445C163.331 24.2455 161.088 22.3936 157.964 22.3936C154.812 22.3936 152.456 24.2739 152.456 27.1229C152.456 29.0318 153.507 30.5987 156.317 31.3394L158.816 31.9946C159.554 32.194 159.866 32.5359 159.866 33.0203C159.866 33.7325 159.214 34.1884 158.106 34.1884C156.828 34.1884 156.147 33.5901 156.147 32.5929H152.2Z" fill="white" fill-opacity="0.54"/>
<path d="M170.677 37.4639C172.41 37.4639 174.141 36.6662 175.022 35.4981L175.306 37.0935H179.423V22.8486H175.05V30.256C175.05 32.3927 174.425 33.5609 172.41 33.5609C170.847 33.5609 169.825 32.8485 169.825 30.199V22.8486H165.452V31.7944C165.452 35.1848 167.327 37.4639 170.677 37.4639Z" fill="white" fill-opacity="0.54"/>
<path d="M186.358 37.0935V29.3158C186.358 26.9226 187.636 26.2388 188.885 26.2388C190.276 26.2388 191.185 27.0936 191.185 28.8599V37.0935H195.5V29.3158C195.5 26.8941 196.75 26.2104 197.999 26.2104C199.39 26.2104 200.327 27.065 200.327 28.8599V37.0935H204.588V27.7773C204.588 24.5295 202.883 22.3643 199.22 22.3643C197.176 22.3643 195.501 23.3614 194.762 24.8998C193.911 23.3614 192.434 22.3643 190.077 22.3643C188.516 22.3643 187.067 23.0764 186.216 24.216L186.046 22.8486H181.956V37.0935H186.358Z" fill="white" fill-opacity="0.54"/>
<path fill-rule="evenodd" clip-rule="evenodd" d="M58.8794 6.84961C54.188 6.84961 49.7391 8.94036 46.7357 12.5564L36.051 25.4211L42.2208 16.1353L31.9794 20.5392C30.6787 21.0985 30.3524 22.7987 31.3529 23.8026L34.6487 27.1093L32.9659 29.1353L36.6679 32.8496L38.6871 31.1612L41.9829 34.468C42.9833 35.4719 44.678 35.1445 45.2353 33.8396L49.6245 23.5639L40.3698 29.7544L53.1916 19.0338C56.7956 16.0205 58.8794 11.5566 58.8794 6.84961ZM48.6992 17.0641C49.7214 18.0897 51.3787 18.0897 52.4011 17.0641C53.4233 16.0384 53.4233 14.3755 52.4011 13.3499C51.3787 12.3241 49.7214 12.3241 48.6992 13.3499C47.6769 14.3755 47.6769 16.0384 48.6992 17.0641Z" fill="white" fill-opacity="0.54"/>
<path opacity="0.6" d="M4.6123 27.6016C7.0634 36.0274 21.9656 35.5881 32.1898 30.3066C25.3435 33.7392 9.14803 34.3947 4.6123 27.6016Z" fill="white" fill-opacity="0.54"/>
<path opacity="0.6" d="M34.3594 56.3221C27.4554 59.1977 30.2842 43.7798 33.5789 36.5537C31.1773 42.9766 29.1272 57.1354 35.3083 55.5551L34.9431 55.901C34.7188 56.0713 34.5538 56.1898 34.3594 56.3221Z" fill="white" fill-opacity="0.54"/>
</svg>
