<svg width="293" height="55" viewBox="0 0 293 55" fill="none" xmlns="http://www.w3.org/2000/svg">
<g clip-path="url(#clip0_31_532)">
<path d="M19.748 45.4566C14.1032 51.12 4.54299 51.0975 1.87309 43.5494C1.35036 42.0716 0.932418 40.5521 0.625023 39.0016C-0.630062 32.671 0.0140937 26.1093 2.47604 20.1459C4.93798 14.1828 9.10712 9.08593 14.4563 5.49996C19.8055 1.914 26.0944 -2.76489e-07 32.5277 0C38.9611 2.76489e-07 45.25 1.914 50.599 5.49996C55.9483 9.08593 60.1174 14.1828 62.5793 20.1461C65.0413 26.1093 65.6853 32.671 64.4303 39.0016C64.123 40.5521 63.705 42.0716 63.1821 43.5494C60.5122 51.0975 50.9521 51.12 45.3073 45.4566L36.5936 36.7142C35.7611 35.879 35.8471 34.5015 36.0768 33.3431C36.2163 32.6389 36.1447 31.9089 35.8708 31.2455C35.5969 30.5821 35.1332 30.015 34.5381 29.6162C33.943 29.2173 33.2434 29.0043 32.5277 29.0043C31.812 29.0043 31.1124 29.2173 30.5174 29.6162C29.9221 30.015 29.4584 30.5821 29.1845 31.2455C28.9106 31.9089 28.8389 32.6389 28.9786 33.3431C29.2083 34.5015 29.2941 35.879 28.4616 36.7142L19.748 45.4566Z" fill="white" fill-opacity="0.54"/>
<path d="M91.519 37.621H100.262V42.7904H84.8442V15.2988H91.519V37.621Z" fill="white" fill-opacity="0.54"/>
<path d="M112.19 43.1039C110.056 43.1039 108.13 42.647 106.413 41.7332C104.721 40.8195 103.381 39.5141 102.392 37.8171C101.429 36.12 100.948 34.1358 100.948 31.8643C100.948 29.6192 101.442 27.6479 102.431 25.9509C103.42 24.2279 104.773 22.9094 106.491 21.9956C108.208 21.0819 110.134 20.625 112.268 20.625C114.401 20.625 116.327 21.0819 118.044 21.9956C119.762 22.9094 121.115 24.2279 122.104 25.9509C123.093 27.6479 123.587 29.6192 123.587 31.8643C123.587 34.1097 123.08 36.0938 122.065 37.8171C121.076 39.5141 119.71 40.8195 117.966 41.7332C116.249 42.647 114.323 43.1039 112.19 43.1039ZM112.19 37.3078C113.465 37.3078 114.545 36.8381 115.429 35.8981C116.34 34.9582 116.796 33.6137 116.796 31.8643C116.796 30.1152 116.353 28.7707 115.468 27.8308C114.61 26.8908 113.543 26.4209 112.268 26.4209C110.967 26.4209 109.887 26.8908 109.028 27.8308C108.169 28.7445 107.74 30.089 107.74 31.8643C107.74 33.6137 108.156 34.9582 108.989 35.8981C109.848 36.8381 110.915 37.3078 112.19 37.3078Z" fill="white" fill-opacity="0.54"/>
<path d="M134.232 20.625C135.768 20.625 137.108 20.9383 138.253 21.5649C139.424 22.1914 140.321 23.0139 140.946 24.032V20.9383H147.621V42.7513C147.621 44.7617 147.217 46.5763 146.411 48.1948C145.63 49.8397 144.42 51.1451 142.781 52.111C141.167 53.0771 139.15 53.5601 136.73 53.5601C133.504 53.5601 130.888 52.7899 128.885 51.2496C126.881 49.7352 125.736 47.6727 125.45 45.0619H132.046C132.255 45.8973 132.749 46.5501 133.53 47.0201C134.31 47.516 135.273 47.7641 136.418 47.7641C137.797 47.7641 138.89 47.3594 139.697 46.5501C140.53 45.7668 140.946 44.5007 140.946 42.7513V39.6577C140.295 40.6757 139.398 41.5113 138.253 42.1639C137.108 42.7906 135.768 43.1039 134.232 43.1039C132.437 43.1039 130.81 42.647 129.353 41.7332C127.896 40.7933 126.738 39.4748 125.879 37.7778C125.047 36.0548 124.63 34.0706 124.63 31.8253C124.63 29.5799 125.047 27.6089 125.879 25.9118C126.738 24.2148 127.896 22.9094 129.353 21.9956C130.81 21.0819 132.437 20.625 134.232 20.625ZM140.946 31.8643C140.946 30.1935 140.478 28.875 139.541 27.9091C138.63 26.9432 137.511 26.4601 136.184 26.4601C134.857 26.4601 133.725 26.9432 132.788 27.9091C131.877 28.849 131.422 30.1544 131.422 31.8253C131.422 33.4961 131.877 34.8277 132.788 35.8198C133.725 36.7857 134.857 37.2688 136.184 37.2688C137.511 37.2688 138.63 36.7857 139.541 35.8198C140.478 34.8537 140.946 33.5354 140.946 31.8643Z" fill="white" fill-opacity="0.54"/>
<path d="M161.193 43.1039C159.059 43.1039 157.134 42.647 155.416 41.7332C153.725 40.8195 152.384 39.5141 151.396 37.8171C150.433 36.12 149.951 34.1358 149.951 31.8643C149.951 29.6192 150.446 27.6479 151.435 25.9509C152.424 24.2279 153.777 22.9094 155.494 21.9956C157.212 21.0819 159.137 20.625 161.271 20.625C163.405 20.625 165.331 21.0819 167.048 21.9956C168.765 22.9094 170.119 24.2279 171.107 25.9509C172.096 27.6479 172.591 29.6192 172.591 31.8643C172.591 34.1097 172.083 36.0938 171.068 37.8171C170.08 39.5141 168.713 40.8195 166.97 41.7332C165.252 42.647 163.327 43.1039 161.193 43.1039ZM161.193 37.3078C162.468 37.3078 163.548 36.8381 164.433 35.8981C165.344 34.9582 165.799 33.6137 165.799 31.8643C165.799 30.1152 165.356 28.7707 164.472 27.8308C163.613 26.8908 162.546 26.4209 161.271 26.4209C159.97 26.4209 158.89 26.8908 158.031 27.8308C157.173 28.7445 156.743 30.089 156.743 31.8643C156.743 33.6137 157.16 34.9582 157.992 35.8981C158.851 36.8381 159.918 37.3078 161.193 37.3078Z" fill="white" fill-opacity="0.54"/>
<path d="M178.318 18.6668C177.147 18.6668 176.184 18.3274 175.429 17.6486C174.7 16.9437 174.336 16.0821 174.336 15.0639C174.336 14.0196 174.7 13.1581 175.429 12.4792C176.184 11.7743 177.147 11.4219 178.318 11.4219C179.463 11.4219 180.399 11.7743 181.128 12.4792C181.883 13.1581 182.26 14.0196 182.26 15.0639C182.26 16.0821 181.883 16.9437 181.128 17.6486C180.399 18.3274 179.463 18.6668 178.318 18.6668ZM181.635 20.9382V42.7905H174.961V20.9382H181.635Z" fill="white" fill-opacity="0.54"/>
<path d="M191.975 24.032C192.626 23.0139 193.524 22.1914 194.669 21.5649C195.815 20.9383 197.155 20.625 198.69 20.625C200.486 20.625 202.111 21.0819 203.569 21.9956C205.026 22.9094 206.172 24.2148 207.004 25.9118C207.862 27.6089 208.293 29.58 208.293 31.8253C208.293 34.0706 207.862 36.0548 207.004 37.7778C206.172 39.4748 205.026 40.7933 203.569 41.7332C202.111 42.647 200.486 43.1039 198.69 43.1039C197.179 43.1039 195.841 42.7906 194.669 42.1639C193.524 41.5373 192.626 40.7281 191.975 39.736V53.2076H185.301V20.9383H191.975V24.032ZM201.501 31.8253C201.501 30.1544 201.032 28.849 200.094 27.9091C199.183 26.9432 198.053 26.4601 196.699 26.4601C195.372 26.4601 194.24 26.9432 193.302 27.9091C192.393 28.875 191.938 30.1935 191.938 31.8643C191.938 33.5354 192.393 34.8537 193.302 35.8198C194.24 36.7857 195.372 37.2688 196.699 37.2688C198.026 37.2688 199.159 36.7857 200.094 35.8198C201.032 34.8277 201.501 33.4961 201.501 31.8253Z" fill="white" fill-opacity="0.54"/>
<path d="M219.483 43.1039C217.584 43.1039 215.892 42.7775 214.408 42.1249C212.926 41.4721 211.754 40.5845 210.896 39.4617C210.037 38.313 209.555 37.0338 209.451 35.6239H216.049C216.126 36.381 216.478 36.9945 217.102 37.4645C217.727 37.9345 218.495 38.1694 219.406 38.1694C220.238 38.1694 220.875 38.0128 221.317 37.6995C221.786 37.3602 222.02 36.9293 222.02 36.4072C222.02 35.7805 221.695 35.3237 221.045 35.0365C220.394 34.7232 219.34 34.3839 217.882 34.0183C216.321 33.6528 215.02 33.2742 213.979 32.8826C212.939 32.465 212.041 31.8253 211.287 30.9637C210.531 30.0761 210.155 28.8881 210.155 27.4001C210.155 26.1468 210.493 25.0112 211.17 23.9929C211.871 22.9487 212.886 22.1261 214.213 21.5257C215.567 20.9252 217.168 20.625 219.015 20.625C221.746 20.625 223.893 21.3038 225.455 22.6613C227.043 24.0191 227.954 25.8204 228.188 28.0657H222.02C221.916 27.3086 221.578 26.7082 221.005 26.2642C220.459 25.8204 219.731 25.5985 218.82 25.5985C218.039 25.5985 217.44 25.7552 217.024 26.0685C216.608 26.3556 216.4 26.7603 216.4 27.2825C216.4 27.9091 216.725 28.3791 217.376 28.6924C218.052 29.0057 219.092 29.319 220.498 29.6321C222.111 30.0499 223.425 30.4677 224.44 30.8853C225.455 31.277 226.34 31.9296 227.094 32.8435C227.875 33.7311 228.279 34.932 228.305 36.4464C228.305 37.7256 227.941 38.8744 227.211 39.8926C226.51 40.8847 225.481 41.668 224.128 42.2423C222.801 42.8167 221.253 43.1039 219.483 43.1039Z" fill="white" fill-opacity="0.54"/>
<path d="M252.725 20.9385V42.7907H246.05V39.8145C245.373 40.7804 244.449 41.5637 243.279 42.1641C242.133 42.7386 240.859 43.0257 239.453 43.0257C237.787 43.0257 236.317 42.6603 235.043 41.9291C233.767 41.172 232.778 40.0885 232.077 38.6788C231.374 37.2689 231.022 35.6111 231.022 33.7051V20.9385H237.657V32.8044C237.657 34.2665 238.035 35.4021 238.789 36.2116C239.544 37.0209 240.559 37.4256 241.835 37.4256C243.135 37.4256 244.163 37.0209 244.918 36.2116C245.672 35.4021 246.05 34.2665 246.05 32.8044V20.9385H252.725Z" fill="white" fill-opacity="0.54"/>
<path d="M284.14 20.7031C286.845 20.7031 288.993 21.5255 290.581 23.1703C292.193 24.815 293 27.0994 293 30.0235V42.7904H286.365V30.9244C286.365 29.5145 285.987 28.431 285.233 27.6739C284.503 26.8906 283.49 26.499 282.187 26.499C280.887 26.499 279.859 26.8906 279.104 27.6739C278.377 28.431 278.012 29.5145 278.012 30.9244V42.7904H271.375V30.9244C271.375 29.5145 270.999 28.431 270.244 27.6739C269.515 26.8906 268.5 26.499 267.199 26.499C265.899 26.499 264.87 26.8906 264.116 27.6739C263.386 28.431 263.023 29.5145 263.023 30.9244V42.7904H256.349V20.9381H263.023V23.6794C263.7 22.7656 264.585 22.0476 265.677 21.5255C266.77 20.9772 268.006 20.7031 269.384 20.7031C271.025 20.7031 272.483 21.0555 273.757 21.7605C275.057 22.4654 276.072 23.4706 276.802 24.776C277.556 23.5749 278.585 22.5959 279.885 21.8388C281.186 21.0817 282.605 20.7031 284.14 20.7031Z" fill="white" fill-opacity="0.54"/>
</g>
<defs>
<clipPath id="clip0_31_532">
<rect width="293" height="55" fill="white"/>
</clipPath>
</defs>
</svg>
