<svg width="179" height="68" viewBox="0 0 179 68" fill="none" xmlns="http://www.w3.org/2000/svg">
<path d="M82.0603 59.9045H86.7218V42.3702H82.0603V59.9045ZM82.0603 39.6357H86.7218V35.4658H82.0603V39.6357Z" fill="white" fill-opacity="0.54"/>
<path d="M89.7256 65.6467H94.3871V57.9221H94.4558C95.4497 59.4259 97.0607 60.4172 99.5285 60.4172C104.053 60.4172 107.138 56.8283 107.138 51.1544C107.138 45.6855 104.156 41.8916 99.4942 41.8916C97.0949 41.8916 95.4497 43.0196 94.3186 44.5575H94.2158V42.3702H89.7256V65.6467ZM98.5346 56.5548C95.7582 56.5548 94.2843 54.4699 94.2843 51.2911C94.2843 48.1466 95.4497 45.6513 98.3631 45.6513C101.242 45.6513 102.408 47.9756 102.408 51.2911C102.408 54.6066 100.9 56.5548 98.5346 56.5548Z" fill="white" fill-opacity="0.54"/>
<path d="M116.437 60.4172C120.824 60.4172 123.84 58.298 123.84 54.7774C123.84 50.6758 120.584 49.8556 117.636 49.2404C115.134 48.7276 112.803 48.5908 112.803 47.087C112.803 45.8223 114.003 45.1386 115.82 45.1386C117.807 45.1386 119.007 45.8223 119.213 47.7022H123.429C123.086 44.1817 120.515 41.8916 115.888 41.8916C111.878 41.8916 108.724 43.7031 108.724 47.497C108.724 51.3252 111.809 52.1798 114.963 52.7951C117.362 53.2734 119.59 53.4445 119.59 55.1193C119.59 56.3498 118.424 57.1358 116.368 57.1358C114.277 57.1358 112.837 56.2473 112.529 54.2305H108.21C108.485 57.9563 111.329 60.4172 116.437 60.4172Z" fill="white" fill-opacity="0.54"/>
<path d="M141.538 59.9044V42.3701H136.877V52.4873C136.877 54.8116 135.54 56.4522 133.346 56.4522C131.358 56.4522 130.433 55.3243 130.433 53.2734V42.3701H125.806V54.0597C125.806 57.8877 127.999 60.383 131.907 60.383C134.375 60.383 135.746 59.46 136.945 57.8535H137.048V59.9044H141.538Z" fill="white" fill-opacity="0.54"/>
<path d="M144.553 59.9045H149.215V49.7187C149.215 47.3945 150.483 45.8907 152.368 45.8907C154.082 45.8907 155.076 46.916 155.076 48.8985V59.9045H159.738V49.7187C159.738 47.3945 160.937 45.8907 162.891 45.8907C164.605 45.8907 165.599 46.916 165.599 48.8985V59.9045H170.26V48.1124C170.26 44.2842 168.17 41.8916 164.468 41.8916C162.24 41.8916 160.389 43.0537 159.189 44.9678H159.121C158.264 43.1221 156.482 41.8916 154.254 41.8916C151.82 41.8916 150.106 43.1221 149.146 44.7286H149.044V42.3702H144.553V59.9045Z" fill="white" fill-opacity="0.54"/>
<path d="M82.1289 29.8723H86.7904V5.43359H82.1289V29.8723Z" fill="white" fill-opacity="0.54"/>
<path d="M98.1884 30.3849C103.638 30.3849 107.374 26.3517 107.374 21.1221C107.374 15.8926 103.638 11.8594 98.1884 11.8594C92.7386 11.8594 89.0024 15.8926 89.0024 21.1221C89.0024 26.3517 92.7386 30.3849 98.1884 30.3849ZM98.1884 26.8302C95.3092 26.8302 93.7326 24.5402 93.7326 21.1221C93.7326 17.7041 95.3092 15.3799 98.1884 15.3799C101.033 15.3799 102.644 17.7041 102.644 21.1221C102.644 24.5402 101.033 26.8302 98.1884 26.8302Z" fill="white" fill-opacity="0.54"/>
<path d="M117.288 35.8538C119.893 35.8538 122.155 35.2386 123.629 33.8713C124.931 32.675 125.72 31.0002 125.72 28.5392V12.3379H121.229V14.1836H121.161C120.098 12.7139 118.487 11.8594 116.294 11.8594C111.838 11.8594 108.684 15.209 108.684 20.4386C108.684 25.7365 112.523 28.8126 116.431 28.8126C118.659 28.8126 119.995 27.924 121.024 26.7619H121.127V28.6759C121.127 31.0685 119.858 32.3331 117.219 32.3331C115.06 32.3331 114.066 31.4787 113.689 30.3849H109.061C109.541 33.803 112.489 35.8538 117.288 35.8538ZM117.219 25.0871C114.82 25.0871 113.243 23.3439 113.243 20.3702C113.243 17.4308 114.82 15.585 117.185 15.585C119.995 15.585 121.366 17.7725 121.366 20.3361C121.366 22.9337 120.167 25.0871 117.219 25.0871Z" fill="white" fill-opacity="0.54"/>
<path d="M137.05 30.3849C142.5 30.3849 146.236 26.3517 146.236 21.1221C146.236 15.8926 142.5 11.8594 137.05 11.8594C131.6 11.8594 127.864 15.8926 127.864 21.1221C127.864 26.3517 131.6 30.3849 137.05 30.3849ZM137.05 26.8302C134.171 26.8302 132.594 24.5402 132.594 21.1221C132.594 17.7041 134.171 15.3799 137.05 15.3799C139.895 15.3799 141.506 17.7041 141.506 21.1221C141.506 24.5402 139.895 26.8302 137.05 26.8302Z" fill="white" fill-opacity="0.54"/>
<path d="M150.322 23.1729H170.476V19.1738H150.322V23.1729Z" fill="white" fill-opacity="0.54"/>
<path d="M171.954 39.392C171.954 38.6054 172.593 37.9678 173.383 37.9678H176.238C177.027 37.9678 177.667 38.6054 177.667 39.392C177.667 40.1785 177.027 40.8161 176.238 40.8161H173.383C172.593 40.8161 171.954 40.1785 171.954 39.392Z" fill="white" fill-opacity="0.54"/>
<path fill-rule="evenodd" clip-rule="evenodd" d="M34.9844 0C53.8147 0 69.0796 15.2223 69.0796 34C69.0796 52.7777 53.8147 68 34.9844 68C16.1541 68 0.88916 52.7777 0.88916 34C0.88916 15.2223 16.1541 0 34.9844 0ZM33.752 2.5442C29.8624 3.09007 26.1587 6.20684 23.2836 11.4196C22.4496 12.9316 21.6971 14.6021 21.0413 16.4057C24.9507 15.4261 29.2451 14.8485 33.752 14.7592V2.5442ZM18.1598 17.2224C18.9751 14.6703 19.9728 12.3223 21.124 10.2351C22.5492 7.651 24.2406 5.41952 26.1464 3.70561C15.7833 6.70689 7.61483 14.8525 4.60516 25.1867C6.32385 23.2863 8.5616 21.5995 11.1529 20.1783C13.246 19.0303 15.6005 18.0355 18.1598 17.2224ZM17.3408 20.0959C16.3584 23.9943 15.7793 28.2768 15.6897 32.7711H3.44048C3.9879 28.8922 7.11339 25.1988 12.3407 22.3319C13.857 21.5002 15.5322 20.7499 17.3408 20.0959ZM18.155 32.7711C18.2568 27.8664 18.9647 23.2618 20.1363 19.1933C24.2161 18.0251 28.8338 17.3189 33.752 17.2174V22.5264C31.9172 27.2105 28.1749 30.942 23.4774 32.7711H18.155ZM15.6897 35.2289H3.44048C3.9879 39.1078 7.11339 42.8011 12.3407 45.6681C13.857 46.4998 15.5322 47.2501 17.3408 47.9041C16.3584 44.0057 15.7793 39.7232 15.6897 35.2289ZM20.1363 48.8067C18.9647 44.7382 18.2568 40.1336 18.155 35.2289H23.4774C28.1749 37.058 31.9174 40.7895 33.752 45.4736V50.7826C28.8338 50.6811 24.2161 49.9749 20.1363 48.8067ZM18.1598 50.7776C15.6005 49.9645 13.246 48.9697 11.1529 47.8217C8.5616 46.4005 6.32385 44.7137 4.60516 42.8133C7.61483 53.1474 15.7833 61.2932 26.1464 64.2943C24.2406 62.5804 22.5492 60.349 21.124 57.7648C19.9728 55.6777 18.9751 53.3297 18.1598 50.7776ZM33.752 65.4558C29.8624 64.9099 26.1587 61.7931 23.2836 56.5804C22.4496 55.0684 21.6971 53.3979 21.0413 51.5943C24.9507 52.5739 29.2451 53.1515 33.752 53.2408V65.4558ZM43.8224 64.2943C45.7281 62.5804 47.4196 60.349 48.845 57.7648C49.996 55.6777 50.9936 53.3297 51.809 50.7776C54.3682 49.9645 56.7228 48.9697 58.8159 47.8217C61.4072 46.4005 63.645 44.7137 65.3636 42.8133C62.354 53.1474 54.1855 61.2932 43.8224 64.2943ZM48.9275 51.5943C48.2716 53.3979 47.5192 55.0684 46.6852 56.5804C43.8103 61.7931 40.1065 64.9099 36.2168 65.4558V53.2408C40.7236 53.1515 45.0181 52.5739 48.9275 51.5943ZM52.628 47.9041C54.4366 47.2501 56.1118 46.4998 57.6281 45.6681C62.8554 42.8011 65.9809 39.1078 66.5283 35.2289H54.2791C54.1896 39.7232 53.6103 44.0057 52.628 47.9041ZM51.814 35.2289C51.7122 40.1336 51.004 44.7382 49.8325 48.8067C45.7527 49.9749 41.1352 50.6811 36.2168 50.7826V45.4776C38.0509 40.7917 41.7941 37.0585 46.4929 35.2289H51.814ZM54.2791 32.7711H66.5283C65.9809 28.8922 62.8554 25.1988 57.6281 22.3319C56.1118 21.5002 54.4366 20.7499 52.628 20.0959C53.6103 23.9943 54.1896 28.2768 54.2791 32.7711ZM49.8325 19.1933C51.004 23.2618 51.7122 27.8664 51.814 32.7711H46.4929C41.7941 30.9415 38.0509 27.2083 36.2168 22.5224V17.2174C41.1352 17.3189 45.7527 18.0251 49.8325 19.1933ZM51.809 17.2224C54.3682 18.0355 56.7228 19.0303 58.8159 20.1783C61.4072 21.5995 63.645 23.2863 65.3636 25.1867C62.354 14.8525 54.1855 6.70689 43.8224 3.70561C45.7281 5.41952 47.4196 7.651 48.845 10.2351C49.996 12.3223 50.9936 14.6703 51.809 17.2224ZM36.2168 2.5442C40.1065 3.09007 43.8103 6.20684 46.6852 11.4196C47.5192 12.9316 48.2716 14.6021 48.9275 16.4057C45.0181 15.4261 40.7236 14.8485 36.2168 14.7592V2.5442Z" fill="white" fill-opacity="0.54"/>
</svg>
