<svg width="249" height="62" viewBox="0 0 249 62" fill="none" xmlns="http://www.w3.org/2000/svg">
<path d="M1.43018 45.981L1.43018 15.3271L16.7183 23.8421V37.5512L28.9489 44.4483L41.1794 37.5512V23.8421L56.4677 15.3271V45.981L28.9489 61.3079L1.43018 45.981Z" fill="white" fill-opacity="0.54"/>
<path fill-rule="evenodd" clip-rule="evenodd" d="M9.07427 19.5845L1.43018 15.327L28.9489 0L56.4677 15.327L48.8235 19.5845V42.1491L28.9489 53.6444L9.07426 42.1491L9.07427 19.5845ZM47.9955 20.0457L41.1794 23.8419V23.7568L28.9489 16.8596L16.7183 23.7568V23.8419L9.90237 20.0457V41.6775L28.9489 52.6938L47.9955 41.6775V20.0457Z" fill="white" fill-opacity="0.54"/>
<path d="M71.1199 43.5578V17.8086H75.9632V39.1436H87.7046V43.5578H71.1199Z" fill="white" fill-opacity="0.54"/>
<path d="M98.1611 44.073C96.3511 44.073 94.7244 43.7052 93.2812 42.9694C91.838 42.2337 90.7006 41.167 89.8689 39.7692C89.0371 38.3714 88.6213 36.6916 88.6213 34.7298V34.1411C88.6213 32.1793 89.0371 30.4994 89.8689 29.1016C90.7006 27.7039 91.838 26.6371 93.2812 25.9015C94.7244 25.1656 96.3511 24.7979 98.1611 24.7979C99.9713 24.7979 101.598 25.1656 103.041 25.9015C104.484 26.6371 105.622 27.7039 106.453 29.1016C107.285 30.4994 107.701 32.1793 107.701 34.1411V34.7298C107.701 36.6916 107.285 38.3714 106.453 39.7692C105.622 41.167 104.484 42.2337 103.041 42.9694C101.598 43.7052 99.9713 44.073 98.1611 44.073ZM98.1611 39.9531C99.5799 39.9531 100.754 39.4995 101.684 38.592C102.613 37.6602 103.078 36.3359 103.078 34.6193V34.2515C103.078 32.535 102.613 31.2228 101.684 30.3155C100.779 29.3837 99.6044 28.9178 98.1611 28.9178C96.7425 28.9178 95.5683 29.3837 94.6388 30.3155C93.7092 31.2228 93.2446 32.535 93.2446 34.2515V34.6193C93.2446 36.3359 93.7092 37.6602 94.6388 38.592C95.5683 39.4995 96.7425 39.9531 98.1611 39.9531Z" fill="white" fill-opacity="0.54"/>
<path d="M109.437 34.509V33.9205C109.437 32.0076 109.816 30.3769 110.574 29.028C111.332 27.6547 112.335 26.6125 113.583 25.9015C114.855 25.1656 116.237 24.7979 117.729 24.7979C119.392 24.7979 120.652 25.0922 121.508 25.6807C122.364 26.2692 122.988 26.8824 123.379 27.52H124.04V25.3128H128.59V46.7951C128.59 48.0457 128.223 49.0389 127.489 49.7747C126.755 50.5349 125.777 50.915 124.554 50.915H112.372V46.8687H122.939C123.624 46.8687 123.967 46.5008 123.967 45.7651V41.0198H123.306C123.061 41.4122 122.719 41.8169 122.279 42.2337C121.838 42.6261 121.251 42.9572 120.518 43.227C119.784 43.4967 118.854 43.6317 117.729 43.6317C116.237 43.6317 114.855 43.276 113.583 42.5648C112.335 41.8291 111.332 40.7868 110.574 39.4382C109.816 38.0649 109.437 36.4219 109.437 34.509ZM119.05 39.5853C120.469 39.5853 121.655 39.1316 122.609 38.2243C123.563 37.317 124.04 36.0417 124.04 34.3987V34.0308C124.04 32.3632 123.563 31.0881 122.609 30.2052C121.679 29.2979 120.493 28.8442 119.05 28.8442C117.631 28.8442 116.445 29.2979 115.491 30.2052C114.537 31.0881 114.06 32.3632 114.06 34.0308V34.3987C114.06 36.0417 114.537 37.317 115.491 38.2243C116.445 39.1316 117.631 39.5853 119.05 39.5853Z" fill="white" fill-opacity="0.54"/>
<path d="M140.724 44.073C138.913 44.073 137.287 43.7052 135.844 42.9694C134.4 42.2337 133.263 41.167 132.431 39.7692C131.6 38.3714 131.184 36.6916 131.184 34.7298V34.1411C131.184 32.1793 131.6 30.4994 132.431 29.1016C133.263 27.7039 134.4 26.6371 135.844 25.9015C137.287 25.1656 138.913 24.7979 140.724 24.7979C142.534 24.7979 144.16 25.1656 145.604 25.9015C147.047 26.6371 148.184 27.7039 149.016 29.1016C149.848 30.4994 150.263 32.1793 150.263 34.1411V34.7298C150.263 36.6916 149.848 38.3714 149.016 39.7692C148.184 41.167 147.047 42.2337 145.604 42.9694C144.16 43.7052 142.534 44.073 140.724 44.073ZM140.724 39.9531C142.142 39.9531 143.316 39.4995 144.246 38.592C145.176 37.6602 145.64 36.3359 145.64 34.6193V34.2515C145.64 32.535 145.176 31.2228 144.246 30.3155C143.341 29.3837 142.167 28.9178 140.724 28.9178C139.305 28.9178 138.131 29.3837 137.201 30.3155C136.272 31.2228 135.807 32.535 135.807 34.2515V34.6193C135.807 36.3359 136.272 37.6602 137.201 38.592C138.131 39.4995 139.305 39.9531 140.724 39.9531Z" fill="white" fill-opacity="0.54"/>
<path d="M152.88 43.5583V25.313H157.503V43.5583H152.88ZM155.191 23.1795C154.359 23.1795 153.65 22.9098 153.063 22.3703C152.5 21.8307 152.219 21.1195 152.219 20.2368C152.219 19.354 152.5 18.6428 153.063 18.1032C153.65 17.5638 154.359 17.2939 155.191 17.2939C156.047 17.2939 156.757 17.5638 157.319 18.1032C157.882 18.6428 158.163 19.354 158.163 20.2368C158.163 21.1195 157.882 21.8307 157.319 22.3703C156.757 22.9098 156.047 23.1795 155.191 23.1795Z" fill="white" fill-opacity="0.54"/>
<path d="M160.975 50.915V25.3128H165.525V27.52H166.186C166.601 26.8088 167.248 26.1834 168.13 25.6438C169.011 25.0798 170.271 24.7979 171.909 24.7979C173.377 24.7979 174.735 25.1656 175.981 25.9015C177.23 26.6125 178.232 27.667 178.99 29.0649C179.749 30.4627 180.128 32.1548 180.128 34.1411V34.7298C180.128 36.716 179.749 38.4082 178.99 39.8059C178.232 41.2039 177.23 42.2706 175.981 43.0063C174.735 43.7175 173.377 44.073 171.909 44.073C170.808 44.073 169.878 43.9381 169.12 43.6684C168.386 43.4231 167.787 43.1043 167.323 42.7119C166.882 42.2951 166.527 41.8782 166.259 41.4613H165.598V50.915H160.975ZM170.515 40.0267C171.958 40.0267 173.145 39.5729 174.074 38.6656C175.028 37.7338 175.504 36.385 175.504 34.6193V34.2515C175.504 32.4859 175.028 31.1493 174.074 30.2419C173.12 29.3101 171.934 28.8442 170.515 28.8442C169.096 28.8442 167.909 29.3101 166.955 30.2419C166.002 31.1493 165.525 32.4859 165.525 34.2515V34.6193C165.525 36.385 166.002 37.7338 166.955 38.6656C167.909 39.5729 169.096 40.0267 170.515 40.0267Z" fill="white" fill-opacity="0.54"/>
<path d="M190.28 44.073C187.907 44.073 185.962 43.5581 184.446 42.5281C182.93 41.498 182.013 40.0267 181.694 38.1138L185.951 37.0104C186.122 37.8686 186.403 38.5431 186.794 39.0335C187.211 39.524 187.712 39.8795 188.299 40.1003C188.91 40.2964 189.57 40.3946 190.28 40.3946C191.356 40.3946 192.152 40.2106 192.666 39.8428C193.179 39.4504 193.436 38.9722 193.436 38.4082C193.436 37.8441 193.192 37.415 192.702 37.1207C192.213 36.8019 191.431 36.5444 190.353 36.3483L189.326 36.1642C188.054 35.919 186.892 35.588 185.84 35.1711C184.789 34.7298 183.944 34.1289 183.308 33.3687C182.673 32.6084 182.354 31.6275 182.354 30.4258C182.354 28.6112 183.015 27.2256 184.337 26.2692C185.656 25.2883 187.395 24.7979 189.546 24.7979C191.577 24.7979 193.265 25.2516 194.609 26.1589C195.955 27.0662 196.835 28.2557 197.252 29.727L192.959 31.0512C192.764 30.1194 192.36 29.4572 191.748 29.0649C191.16 28.6725 190.427 28.4762 189.546 28.4762C188.666 28.4762 187.993 28.6357 187.528 28.9545C187.064 29.2488 186.831 29.6657 186.831 30.2052C186.831 30.7937 187.076 31.2351 187.565 31.5294C188.054 31.7991 188.714 32.0076 189.546 32.1548L190.573 32.3387C191.943 32.5839 193.179 32.915 194.28 33.3318C195.405 33.7242 196.285 34.3005 196.922 35.0608C197.582 35.7965 197.913 36.8019 197.913 38.0771C197.913 39.99 197.215 41.4736 195.82 42.5281C194.451 43.5581 192.604 44.073 190.28 44.073Z" fill="white" fill-opacity="0.54"/>
<path d="M207.246 43.852C205.829 43.852 204.58 43.5332 203.505 42.8957C202.453 42.2334 201.633 41.3261 201.045 40.1736C200.46 39.021 200.165 37.6967 200.165 36.2008V25.3125H204.789V35.8329C204.789 37.2062 205.119 38.2362 205.78 38.9228C206.463 39.6095 207.43 39.9528 208.678 39.9528C210.096 39.9528 211.198 39.4868 211.98 38.555C212.763 37.5986 213.154 36.2744 213.154 34.5823V25.3125H217.777V43.5578H213.227V41.1667H212.568C212.273 41.7799 211.723 42.3806 210.916 42.9691C210.109 43.5578 208.885 43.852 207.246 43.852Z" fill="white" fill-opacity="0.54"/>
<path d="M221.271 43.558V25.3127H225.82V27.2992H226.481C226.798 26.686 227.326 26.1589 228.058 25.7174C228.792 25.2515 229.759 25.0186 230.958 25.0186C232.254 25.0186 233.293 25.276 234.076 25.7909C234.859 26.2814 235.458 26.9313 235.875 27.7405H236.534C236.95 26.9559 237.538 26.306 238.296 25.7909C239.055 25.276 240.13 25.0186 241.525 25.0186C242.65 25.0186 243.665 25.2638 244.57 25.7542C245.499 26.22 246.233 26.9435 246.772 27.9246C247.333 28.8808 247.615 30.0947 247.615 31.5662V43.558H242.991V31.8973C242.991 30.8918 242.736 30.1438 242.222 29.6534C241.707 29.1385 240.986 28.8808 240.057 28.8808C239.006 28.8808 238.186 29.2243 237.598 29.9108C237.037 30.5729 236.755 31.5294 236.755 32.7801V43.558H232.131V31.8973C232.131 30.8918 231.874 30.1438 231.362 29.6534C230.847 29.1385 230.126 28.8808 229.196 28.8808C228.144 28.8808 227.326 29.2243 226.738 29.9108C226.175 30.5729 225.893 31.5294 225.893 32.7801V43.558H221.271Z" fill="white" fill-opacity="0.54"/>
</svg>
