<svg width="44" height="44" viewBox="0 0 44 44" fill="none" xmlns="http://www.w3.org/2000/svg">
<path d="M42.3704 44H1.62963C0.733333 44 0 43.2667 0 42.3704V1.62963C0 0.733333 0.733333 0 1.62963 0H42.3704C43.2667 0 44 0.733333 44 1.62963V42.3704C44 43.2667 43.2667 44 42.3704 44ZM3.25926 40.7407H40.7407V3.25926H3.25926V40.7407Z" fill="#B0B2B5"/>
<path d="M11.8148 33.0813C11.5704 33.0813 11.4074 32.9998 11.2444 32.8369C10.9185 32.511 10.9185 32.0221 11.2444 31.6961L16.3778 26.5628C16.7037 26.2369 17.1926 26.2369 17.5185 26.5628C17.8444 26.8887 17.8444 27.3776 17.5185 27.7035L12.3852 32.8369C12.2222 32.9998 12.0593 33.0813 11.8148 33.0813Z" fill="#B0B2B5"/>
<path d="M8.96301 36.0151C8.71856 36.0151 8.5556 35.9336 8.39264 35.7707C8.06671 35.4447 8.06671 34.9559 8.39264 34.6299L10.0223 33.0003C10.3482 32.6744 10.8371 32.6744 11.163 33.0003C11.4889 33.3262 11.4889 33.8151 11.163 34.141L9.53338 35.7707C9.37042 35.9336 9.12597 36.0151 8.96301 36.0151Z" fill="#B0B2B5"/>
<path d="M16.9481 28.029H11.8148C11.3259 28.029 11 27.7031 11 27.2142C11 26.7253 11.3259 26.3994 11.8148 26.3994H16.9481C17.437 26.3994 17.763 26.7253 17.763 27.2142C17.763 27.7031 17.3556 28.029 16.9481 28.029Z" fill="#B0B2B5"/>
<path d="M16.9481 33.1624C16.4592 33.1624 16.1333 32.8365 16.1333 32.3476V27.2142C16.1333 26.7253 16.4592 26.3994 16.9481 26.3994C17.437 26.3994 17.7629 26.7253 17.7629 27.2142V32.3476C17.7629 32.755 17.3555 33.1624 16.9481 33.1624Z" fill="#B0B2B5"/>
<path d="M27.0519 17.5999C26.8074 17.5999 26.6445 17.5184 26.4815 17.3554C26.1556 17.0295 26.1556 16.5406 26.4815 16.2147L31.6148 11.0814C31.9408 10.7554 32.4297 10.7554 32.7556 11.0814C33.0815 11.4073 33.0815 11.8962 32.7556 12.2221L27.6222 17.3554C27.4593 17.5184 27.2963 17.5999 27.0519 17.5999Z" fill="#B0B2B5"/>
<path d="M33.4076 11.2436C33.1631 11.2436 33.0002 11.1622 32.8372 10.9992C32.5113 10.6733 32.5113 10.1844 32.8372 9.85845L34.4668 8.22882C34.7928 7.90289 35.2817 7.90289 35.6076 8.22882C35.9335 8.55475 35.9335 9.04363 35.6076 9.36956L33.978 10.9992C33.8965 11.1622 33.652 11.2436 33.4076 11.2436Z" fill="#B0B2B5"/>
<path d="M32.2668 17.5994H27.1334C26.6445 17.5994 26.3186 17.2734 26.3186 16.7845C26.3186 16.2957 26.6445 15.9697 27.1334 15.9697H32.2668C32.7556 15.9697 33.0816 16.2957 33.0816 16.7845C33.0816 17.2734 32.6742 17.5994 32.2668 17.5994Z" fill="#B0B2B5"/>
<path d="M27.0519 17.5999C26.563 17.5999 26.2371 17.274 26.2371 16.7851V11.6517C26.2371 11.1628 26.563 10.8369 27.0519 10.8369C27.5408 10.8369 27.8667 11.1628 27.8667 11.6517V16.7851C27.8667 17.274 27.5408 17.5999 27.0519 17.5999Z" fill="#B0B2B5"/>
<path d="M16.7855 17.763C16.5411 17.763 16.3781 17.6815 16.2152 17.5185L11.0818 12.3852C10.7559 12.0593 10.7559 11.5704 11.0818 11.2444C11.4078 10.9185 11.8967 10.9185 12.2226 11.2444L17.3559 16.3778C17.6818 16.7037 17.6818 17.1926 17.3559 17.5185C17.193 17.6815 17.03 17.763 16.7855 17.763Z" fill="#B0B2B5"/>
<path d="M10.43 11.4067C10.1856 11.4067 10.0226 11.3252 9.85967 11.1623L8.23004 9.53265C7.90411 9.20672 7.90411 8.71783 8.23004 8.39191C8.55597 8.06598 9.04485 8.06598 9.37078 8.39191L11.0004 10.0215C11.3263 10.3475 11.3263 10.8364 11.0004 11.1623C10.8374 11.3252 10.6745 11.4067 10.43 11.4067Z" fill="#B0B2B5"/>
<path d="M16.7855 17.763C16.2966 17.763 15.9707 17.437 15.9707 16.9481V11.8148C15.9707 11.3259 16.2966 11 16.7855 11C17.2744 11 17.6003 11.3259 17.6003 11.8148V16.9481C17.6003 17.3556 17.2744 17.763 16.7855 17.763Z" fill="#B0B2B5"/>
<path d="M16.7853 17.7624H11.652C11.1631 17.7624 10.8372 17.4365 10.8372 16.9476C10.8372 16.4587 11.1631 16.1328 11.652 16.1328H16.7853C17.2742 16.1328 17.6001 16.4587 17.6001 16.9476C17.6001 17.4365 17.2742 17.7624 16.7853 17.7624Z" fill="#B0B2B5"/>
<path d="M32.2668 33.0003C32.0223 33.0003 31.8593 32.9188 31.6964 32.7558L26.563 27.6225C26.2371 27.2966 26.2371 26.8077 26.563 26.4817C26.889 26.1558 27.3779 26.1558 27.7038 26.4817L32.8371 31.6151C33.163 31.941 33.163 32.4299 32.8371 32.7558C32.6742 32.9188 32.5112 33.0003 32.2668 33.0003Z" fill="#B0B2B5"/>
<path d="M35.2001 35.852C34.9556 35.852 34.7927 35.7706 34.6297 35.6076L33.0001 33.978C32.6741 33.652 32.6741 33.1631 33.0001 32.8372C33.326 32.5113 33.8149 32.5113 34.1408 32.8372L35.7704 34.4668C36.0964 34.7928 36.0964 35.2817 35.7704 35.6076C35.6075 35.7706 35.363 35.852 35.2001 35.852Z" fill="#B0B2B5"/>
<path d="M27.215 33.0813C26.7261 33.0813 26.4001 32.7554 26.4001 32.2665V27.1332C26.4001 26.6443 26.7261 26.3184 27.215 26.3184C27.7039 26.3184 28.0298 26.6443 28.0298 27.1332V32.2665C28.0298 32.6739 27.6224 33.0813 27.215 33.0813Z" fill="#B0B2B5"/>
<path d="M32.3483 27.8669H27.215C26.7261 27.8669 26.4001 27.541 26.4001 27.0521C26.4001 26.5632 26.7261 26.2373 27.215 26.2373H32.3483C32.8372 26.2373 33.1631 26.5632 33.1631 27.0521C33.1631 27.541 32.7557 27.8669 32.3483 27.8669Z" fill="#B0B2B5"/>
</svg>
