<svg width="127" height="109" viewBox="0 0 127 109" fill="none" xmlns="http://www.w3.org/2000/svg">
<path d="M117.163 51.0863L125.755 37.0848C127.028 35.1755 126.073 32.948 124.482 31.9933C122.573 30.7204 120.346 31.6751 119.391 33.2662L116.209 38.9941C113.663 30.4022 108.89 23.0832 102.525 16.7189C81.2049 -4.28342 46.201 -4.28342 24.8805 16.7189C20.1073 21.4922 16.6069 26.5836 13.7429 32.3115C12.7883 34.2208 13.7429 36.4483 15.6522 37.403C17.5615 38.3576 19.789 37.403 20.7437 35.4937C22.9712 30.4022 26.1534 25.9472 30.2902 21.8104C48.7468 3.67201 78.6592 3.67201 97.1157 21.8104C104.753 29.4476 109.526 38.9941 110.481 49.177C110.799 50.7681 111.754 52.041 113.663 52.3592C113.981 52.3592 113.981 52.3592 114.299 52.3592C115.254 52.6774 116.209 52.041 117.163 51.0863Z" fill="white"/>
<path d="M110.799 73.0432C108.89 72.0885 106.662 73.0432 105.708 74.9525C103.48 79.7257 100.298 84.1808 96.4793 87.9994C78.0227 106.138 48.1103 106.138 29.6537 87.9994C22.653 81.3168 18.1979 72.4068 16.2886 63.1785C15.9704 61.5874 15.0158 60.3145 13.1065 59.9963C11.1972 59.6781 9.92429 60.3145 8.96964 61.9056L1.01421 74.9525C0.0595626 76.8618 0.695996 79.0893 2.28708 80.044C4.19638 80.9986 6.4239 80.3622 7.37855 78.7711L10.5607 73.3614C13.1065 80.9986 17.5615 87.6812 23.2894 93.4091C33.7906 103.91 48.1103 109.002 62.1119 109.002C76.1134 109.002 90.1149 103.91 100.934 93.4091C105.389 88.954 108.89 83.8626 111.435 78.4529C113.345 76.2254 112.708 73.6796 110.799 73.0432Z" fill="white"/>
</svg>
